<svg width="302" height="120" viewBox="0 0 302 120" fill="none" xmlns="http://www.w3.org/2000/svg">
<g filter="url(#filter0_f)">
<path d="M146.42 54.7372C148.093 80.0925 156.252 101.802 156.252 101.802C156.252 101.802 181.064 80.996 168.403 58.5615C155.742 36.127 169.367 17.7124 169.367 17.7124C169.367 17.7124 144.747 29.3819 146.42 54.7372Z" stroke="url(#paint0_linear)"/>
<path d="M161.308 46.7939C158.553 72.0545 162.817 94.8508 162.817 94.8508C162.817 94.8508 190.865 78.6695 182.292 54.3773C173.72 30.0851 190.335 14.3162 190.335 14.3162C190.335 14.3162 164.063 21.5332 161.308 46.7939Z" stroke="url(#paint1_linear)"/>
<path d="M175.6 39.4851C168.501 63.8835 168.742 87.0741 168.742 87.0741C168.742 87.0741 199.174 76.0092 194.949 50.5973C190.725 25.1855 209.827 12.5415 209.827 12.5415C209.827 12.5415 182.7 15.0867 175.6 39.4851Z" stroke="url(#paint2_linear)"/>
<path d="M190.309 32.49C179.08 55.2848 175.291 78.165 175.291 78.165C175.291 78.165 207.182 72.5526 207.434 46.7933C207.687 21.0339 228.694 11.899 228.694 11.899C228.694 11.899 201.537 9.69511 190.309 32.49Z" stroke="url(#paint3_linear)"/>
<path d="M206.431 25.4778C191.415 45.9765 183.71 67.8511 183.71 67.8511C183.71 67.8511 216.091 67.8618 220.813 42.5376C225.534 17.2135 247.808 11.8651 247.808 11.8651C247.808 11.8651 221.447 4.9791 206.431 25.4778Z" stroke="url(#paint4_linear)"/>
<path d="M222.837 18.903C204.489 36.4827 193.103 56.6871 193.103 56.6871C193.103 56.6871 224.99 62.3205 234.038 38.201C243.085 14.0815 265.95 12.6822 265.95 12.6822C265.95 12.6822 241.185 1.32328 222.837 18.903Z" stroke="url(#paint5_linear)"/>
<path d="M238.387 13.2054C217.265 27.3319 202.544 45.2522 202.544 45.2522C202.544 45.2522 232.968 56.3371 246.066 34.1551C259.165 11.9731 281.925 14.5655 281.925 14.5655C281.925 14.5655 259.509 -0.92122 238.387 13.2054Z" stroke="url(#paint6_linear)"/>
<path d="M254.054 8.01531C230.8 18.2595 213.19 33.3511 213.19 33.3511C213.19 33.3511 241.228 49.5508 257.979 29.9803C274.73 10.4098 296.694 16.9151 296.694 16.9151C296.694 16.9151 277.308 -2.22889 254.054 8.01531Z" stroke="url(#paint7_linear)"/>
<path d="M155.274 54.7372C153.601 80.0925 145.442 101.802 145.442 101.802C145.442 101.802 120.63 80.996 133.291 58.5615C145.952 36.127 132.327 17.7124 132.327 17.7124C132.327 17.7124 156.947 29.3819 155.274 54.7372Z" stroke="url(#paint8_linear)"/>
<path d="M140.386 46.7939C143.142 72.0545 138.877 94.8508 138.877 94.8508C138.877 94.8508 110.829 78.6695 119.402 54.3773C127.975 30.0851 111.359 14.3162 111.359 14.3162C111.359 14.3162 137.631 21.5332 140.386 46.7939Z" stroke="url(#paint9_linear)"/>
<path d="M126.094 39.4851C133.194 63.8835 132.952 87.0741 132.952 87.0741C132.952 87.0741 102.52 76.0092 106.745 50.5973C110.969 25.1855 91.8675 12.5415 91.8675 12.5415C91.8675 12.5415 118.994 15.0867 126.094 39.4851Z" stroke="url(#paint10_linear)"/>
<path d="M111.385 32.49C122.614 55.2848 126.403 78.165 126.403 78.165C126.403 78.165 94.5124 72.5526 94.2599 46.7933C94.0074 21.0339 73.0004 11.899 73.0004 11.899C73.0004 11.899 100.157 9.69511 111.385 32.49Z" stroke="url(#paint11_linear)"/>
<path d="M95.263 25.4778C110.279 45.9765 117.984 67.8511 117.984 67.8511C117.984 67.8511 85.6032 67.8618 80.8815 42.5376C76.1598 17.2135 53.8856 11.8651 53.8856 11.8651C53.8856 11.8651 80.2466 4.9791 95.263 25.4778Z" stroke="url(#paint12_linear)"/>
<path d="M78.8572 18.903C97.205 36.4827 108.591 56.6871 108.591 56.6871C108.591 56.6871 76.704 62.3205 67.6565 38.201C58.6091 14.0815 35.7446 12.6822 35.7446 12.6822C35.7446 12.6822 60.5093 1.32328 78.8572 18.903Z" stroke="url(#paint13_linear)"/>
<path d="M63.3072 13.2054C84.4289 27.3319 99.1506 45.2522 99.1506 45.2522C99.1506 45.2522 68.7261 56.3371 55.6277 34.1551C42.5294 11.9731 19.7693 14.5655 19.7693 14.5655C19.7693 14.5655 42.1854 -0.92122 63.3072 13.2054Z" stroke="url(#paint14_linear)"/>
<path d="M47.6402 8.01531C70.8941 18.2595 88.5039 33.3511 88.5039 33.3511C88.5039 33.3511 60.4665 49.5508 43.7153 29.9803C26.9641 10.4098 5 16.9151 5 16.9151C5 16.9151 24.3863 -2.22889 47.6402 8.01531Z" stroke="url(#paint15_linear)"/>
<path d="M146.42 61.1152C148.093 35.7599 156.252 14.0505 156.252 14.0505C156.252 14.0505 181.064 34.8564 168.403 57.2909C155.742 79.7254 169.367 98.14 169.367 98.14C169.367 98.14 144.747 86.4705 146.42 61.1152Z" stroke="url(#paint16_linear)"/>
<path d="M161.308 69.0586C158.553 43.798 162.817 21.0016 162.817 21.0016C162.817 21.0016 190.865 37.1829 182.292 61.4751C173.72 85.7673 190.335 101.536 190.335 101.536C190.335 101.536 164.063 94.3192 161.308 69.0586Z" stroke="url(#paint17_linear)"/>
<path d="M175.6 76.3673C168.501 51.9689 168.742 28.7783 168.742 28.7783C168.742 28.7783 199.174 39.8432 194.949 65.2551C190.725 90.6669 209.827 103.311 209.827 103.311C209.827 103.311 182.7 100.766 175.6 76.3673Z" stroke="url(#paint18_linear)"/>
<path d="M190.309 83.3624C179.08 60.5676 175.291 37.6874 175.291 37.6874C175.291 37.6874 207.182 43.2998 207.434 69.0591C207.687 94.8185 228.694 103.953 228.694 103.953C228.694 103.953 201.537 106.157 190.309 83.3624Z" stroke="url(#paint19_linear)"/>
<path d="M206.431 90.3746C191.415 69.8759 183.71 48.0013 183.71 48.0013C183.71 48.0013 216.091 47.9906 220.813 73.3148C225.534 98.6389 247.808 103.987 247.808 103.987C247.808 103.987 221.447 110.873 206.431 90.3746Z" stroke="url(#paint20_linear)"/>
<path d="M222.837 96.9494C204.489 79.3697 193.103 59.1653 193.103 59.1653C193.103 59.1653 224.99 53.5319 234.038 77.6514C243.085 101.771 265.95 103.17 265.95 103.17C265.95 103.17 241.185 114.529 222.837 96.9494Z" stroke="url(#paint21_linear)"/>
<path d="M238.387 102.647C217.265 88.5205 202.544 70.6002 202.544 70.6002C202.544 70.6002 232.968 59.5153 246.066 81.6973C259.165 103.879 281.925 101.287 281.925 101.287C281.925 101.287 259.509 116.774 238.387 102.647Z" stroke="url(#paint22_linear)"/>
<path d="M254.054 107.837C230.8 97.5929 213.19 82.5013 213.19 82.5013C213.19 82.5013 241.228 66.3016 257.979 85.8721C274.73 105.443 296.694 98.9373 296.694 98.9373C296.694 98.9373 277.308 118.081 254.054 107.837Z" stroke="url(#paint23_linear)"/>
<path d="M155.274 61.1152C153.601 35.7599 145.442 14.0505 145.442 14.0505C145.442 14.0505 120.63 34.8564 133.291 57.2909C145.952 79.7254 132.327 98.14 132.327 98.14C132.327 98.14 156.947 86.4705 155.274 61.1152Z" stroke="url(#paint24_linear)"/>
<path d="M140.386 69.0586C143.142 43.798 138.877 21.0016 138.877 21.0016C138.877 21.0016 110.829 37.1829 119.402 61.4751C127.975 85.7673 111.359 101.536 111.359 101.536C111.359 101.536 137.631 94.3192 140.386 69.0586Z" stroke="url(#paint25_linear)"/>
<path d="M126.094 76.3673C133.194 51.9689 132.952 28.7783 132.952 28.7783C132.952 28.7783 102.52 39.8432 106.745 65.2551C110.969 90.6669 91.8675 103.311 91.8675 103.311C91.8675 103.311 118.994 100.766 126.094 76.3673Z" stroke="url(#paint26_linear)"/>
<path d="M111.385 83.3624C122.614 60.5676 126.403 37.6874 126.403 37.6874C126.403 37.6874 94.5124 43.2998 94.2599 69.0591C94.0074 94.8185 73.0004 103.953 73.0004 103.953C73.0004 103.953 100.157 106.157 111.385 83.3624Z" stroke="url(#paint27_linear)"/>
<path d="M95.263 90.3746C110.279 69.8759 117.984 48.0013 117.984 48.0013C117.984 48.0013 85.6032 47.9906 80.8815 73.3148C76.1598 98.6389 53.8856 103.987 53.8856 103.987C53.8856 103.987 80.2466 110.873 95.263 90.3746Z" stroke="url(#paint28_linear)"/>
<path d="M78.8572 96.9494C97.205 79.3697 108.591 59.1653 108.591 59.1653C108.591 59.1653 76.704 53.5319 67.6565 77.6514C58.6091 101.771 35.7446 103.17 35.7446 103.17C35.7446 103.17 60.5093 114.529 78.8572 96.9494Z" stroke="url(#paint29_linear)"/>
<path d="M63.3072 102.647C84.4289 88.5205 99.1506 70.6002 99.1506 70.6002C99.1506 70.6002 68.7261 59.5153 55.6277 81.6973C42.5294 103.879 19.7693 101.287 19.7693 101.287C19.7693 101.287 42.1854 116.774 63.3072 102.647Z" stroke="url(#paint30_linear)"/>
<path d="M47.6402 107.837C70.8941 97.5929 88.5039 82.5013 88.5039 82.5013C88.5039 82.5013 60.4665 66.3016 43.7153 85.8721C26.9641 105.443 5 98.9373 5 98.9373C5 98.9373 24.3863 118.081 47.6402 107.837Z" stroke="url(#paint31_linear)"/>
</g>
<g filter="url(#filter1_d)">
<path d="M146.42 54.7372C148.093 80.0925 156.252 101.802 156.252 101.802C156.252 101.802 181.064 80.996 168.403 58.5615C155.742 36.127 169.367 17.7124 169.367 17.7124C169.367 17.7124 144.747 29.3819 146.42 54.7372Z" stroke="url(#paint32_linear)"/>
<path d="M161.308 46.7939C158.553 72.0545 162.817 94.8508 162.817 94.8508C162.817 94.8508 190.865 78.6695 182.292 54.3773C173.72 30.0851 190.335 14.3162 190.335 14.3162C190.335 14.3162 164.063 21.5332 161.308 46.7939Z" stroke="url(#paint33_linear)"/>
<path d="M175.6 39.4851C168.501 63.8835 168.742 87.0741 168.742 87.0741C168.742 87.0741 199.174 76.0092 194.949 50.5973C190.725 25.1855 209.827 12.5415 209.827 12.5415C209.827 12.5415 182.7 15.0867 175.6 39.4851Z" stroke="url(#paint34_linear)"/>
<path d="M190.309 32.49C179.08 55.2848 175.291 78.165 175.291 78.165C175.291 78.165 207.182 72.5526 207.434 46.7933C207.687 21.0339 228.694 11.899 228.694 11.899C228.694 11.899 201.537 9.69511 190.309 32.49Z" stroke="url(#paint35_linear)"/>
<path d="M206.431 25.4778C191.415 45.9765 183.71 67.8511 183.71 67.8511C183.71 67.8511 216.091 67.8618 220.813 42.5376C225.534 17.2135 247.808 11.8651 247.808 11.8651C247.808 11.8651 221.447 4.9791 206.431 25.4778Z" stroke="url(#paint36_linear)"/>
<path d="M222.837 18.903C204.489 36.4827 193.103 56.6871 193.103 56.6871C193.103 56.6871 224.99 62.3205 234.038 38.201C243.085 14.0815 265.95 12.6822 265.95 12.6822C265.95 12.6822 241.185 1.32328 222.837 18.903Z" stroke="url(#paint37_linear)"/>
<path d="M238.387 13.2054C217.265 27.3319 202.544 45.2522 202.544 45.2522C202.544 45.2522 232.968 56.3371 246.066 34.1551C259.165 11.9731 281.925 14.5655 281.925 14.5655C281.925 14.5655 259.509 -0.92122 238.387 13.2054Z" stroke="url(#paint38_linear)"/>
<path d="M254.054 8.01531C230.8 18.2595 213.19 33.3511 213.19 33.3511C213.19 33.3511 241.228 49.5508 257.979 29.9803C274.73 10.4098 296.694 16.9151 296.694 16.9151C296.694 16.9151 277.308 -2.22889 254.054 8.01531Z" stroke="url(#paint39_linear)"/>
<path d="M155.274 54.7372C153.601 80.0925 145.442 101.802 145.442 101.802C145.442 101.802 120.63 80.996 133.291 58.5615C145.952 36.127 132.327 17.7124 132.327 17.7124C132.327 17.7124 156.947 29.3819 155.274 54.7372Z" stroke="url(#paint40_linear)"/>
<path d="M140.386 46.7939C143.142 72.0545 138.877 94.8508 138.877 94.8508C138.877 94.8508 110.829 78.6695 119.402 54.3773C127.975 30.0851 111.359 14.3162 111.359 14.3162C111.359 14.3162 137.631 21.5332 140.386 46.7939Z" stroke="url(#paint41_linear)"/>
<path d="M126.094 39.4851C133.194 63.8835 132.952 87.0741 132.952 87.0741C132.952 87.0741 102.52 76.0092 106.745 50.5973C110.969 25.1855 91.8675 12.5415 91.8675 12.5415C91.8675 12.5415 118.994 15.0867 126.094 39.4851Z" stroke="url(#paint42_linear)"/>
<path d="M111.385 32.49C122.614 55.2848 126.403 78.165 126.403 78.165C126.403 78.165 94.5124 72.5526 94.2599 46.7933C94.0074 21.0339 73.0004 11.899 73.0004 11.899C73.0004 11.899 100.157 9.69511 111.385 32.49Z" stroke="url(#paint43_linear)"/>
<path d="M95.263 25.4778C110.279 45.9765 117.984 67.8511 117.984 67.8511C117.984 67.8511 85.6032 67.8618 80.8815 42.5376C76.1598 17.2135 53.8856 11.8651 53.8856 11.8651C53.8856 11.8651 80.2466 4.9791 95.263 25.4778Z" stroke="url(#paint44_linear)"/>
<path d="M78.8572 18.903C97.205 36.4827 108.591 56.6871 108.591 56.6871C108.591 56.6871 76.704 62.3205 67.6565 38.201C58.6091 14.0815 35.7446 12.6822 35.7446 12.6822C35.7446 12.6822 60.5093 1.32328 78.8572 18.903Z" stroke="url(#paint45_linear)"/>
<path d="M63.3072 13.2054C84.4289 27.3319 99.1506 45.2522 99.1506 45.2522C99.1506 45.2522 68.7261 56.3371 55.6277 34.1551C42.5294 11.9731 19.7693 14.5655 19.7693 14.5655C19.7693 14.5655 42.1854 -0.92122 63.3072 13.2054Z" stroke="url(#paint46_linear)"/>
<path d="M47.6402 8.01531C70.8941 18.2595 88.5039 33.3511 88.5039 33.3511C88.5039 33.3511 60.4665 49.5508 43.7153 29.9803C26.9641 10.4098 5 16.9151 5 16.9151C5 16.9151 24.3863 -2.22889 47.6402 8.01531Z" stroke="url(#paint47_linear)"/>
<path d="M146.42 61.1152C148.093 35.7599 156.252 14.0505 156.252 14.0505C156.252 14.0505 181.064 34.8564 168.403 57.2909C155.742 79.7254 169.367 98.14 169.367 98.14C169.367 98.14 144.747 86.4705 146.42 61.1152Z" stroke="url(#paint48_linear)"/>
<path d="M161.308 69.0586C158.553 43.798 162.817 21.0016 162.817 21.0016C162.817 21.0016 190.865 37.1829 182.292 61.4751C173.72 85.7673 190.335 101.536 190.335 101.536C190.335 101.536 164.063 94.3192 161.308 69.0586Z" stroke="url(#paint49_linear)"/>
<path d="M175.6 76.3673C168.501 51.9689 168.742 28.7783 168.742 28.7783C168.742 28.7783 199.174 39.8432 194.949 65.2551C190.725 90.6669 209.827 103.311 209.827 103.311C209.827 103.311 182.7 100.766 175.6 76.3673Z" stroke="url(#paint50_linear)"/>
<path d="M190.309 83.3624C179.08 60.5676 175.291 37.6874 175.291 37.6874C175.291 37.6874 207.182 43.2998 207.434 69.0591C207.687 94.8185 228.694 103.953 228.694 103.953C228.694 103.953 201.537 106.157 190.309 83.3624Z" stroke="url(#paint51_linear)"/>
<path d="M206.431 90.3746C191.415 69.8759 183.71 48.0013 183.71 48.0013C183.71 48.0013 216.091 47.9906 220.813 73.3148C225.534 98.6389 247.808 103.987 247.808 103.987C247.808 103.987 221.447 110.873 206.431 90.3746Z" stroke="url(#paint52_linear)"/>
<path d="M222.837 96.9494C204.489 79.3697 193.103 59.1653 193.103 59.1653C193.103 59.1653 224.99 53.5319 234.038 77.6514C243.085 101.771 265.95 103.17 265.95 103.17C265.95 103.17 241.185 114.529 222.837 96.9494Z" stroke="url(#paint53_linear)"/>
<path d="M238.387 102.647C217.265 88.5205 202.544 70.6002 202.544 70.6002C202.544 70.6002 232.968 59.5153 246.066 81.6973C259.165 103.879 281.925 101.287 281.925 101.287C281.925 101.287 259.509 116.774 238.387 102.647Z" stroke="url(#paint54_linear)"/>
<path d="M254.054 107.837C230.8 97.5929 213.19 82.5013 213.19 82.5013C213.19 82.5013 241.228 66.3016 257.979 85.8721C274.73 105.443 296.694 98.9373 296.694 98.9373C296.694 98.9373 277.308 118.081 254.054 107.837Z" stroke="url(#paint55_linear)"/>
<path d="M155.274 61.1152C153.601 35.7599 145.442 14.0505 145.442 14.0505C145.442 14.0505 120.63 34.8564 133.291 57.2909C145.952 79.7254 132.327 98.14 132.327 98.14C132.327 98.14 156.947 86.4705 155.274 61.1152Z" stroke="url(#paint56_linear)"/>
<path d="M140.386 69.0586C143.142 43.798 138.877 21.0016 138.877 21.0016C138.877 21.0016 110.829 37.1829 119.402 61.4751C127.975 85.7673 111.359 101.536 111.359 101.536C111.359 101.536 137.631 94.3192 140.386 69.0586Z" stroke="url(#paint57_linear)"/>
<path d="M126.094 76.3673C133.194 51.9689 132.952 28.7783 132.952 28.7783C132.952 28.7783 102.52 39.8432 106.745 65.2551C110.969 90.6669 91.8675 103.311 91.8675 103.311C91.8675 103.311 118.994 100.766 126.094 76.3673Z" stroke="url(#paint58_linear)"/>
<path d="M111.385 83.3624C122.614 60.5676 126.403 37.6874 126.403 37.6874C126.403 37.6874 94.5124 43.2998 94.2599 69.0591C94.0074 94.8185 73.0004 103.953 73.0004 103.953C73.0004 103.953 100.157 106.157 111.385 83.3624Z" stroke="url(#paint59_linear)"/>
<path d="M95.263 90.3746C110.279 69.8759 117.984 48.0013 117.984 48.0013C117.984 48.0013 85.6032 47.9906 80.8815 73.3148C76.1598 98.6389 53.8856 103.987 53.8856 103.987C53.8856 103.987 80.2466 110.873 95.263 90.3746Z" stroke="url(#paint60_linear)"/>
<path d="M78.8572 96.9494C97.205 79.3697 108.591 59.1653 108.591 59.1653C108.591 59.1653 76.704 53.5319 67.6565 77.6514C58.6091 101.771 35.7446 103.17 35.7446 103.17C35.7446 103.17 60.5093 114.529 78.8572 96.9494Z" stroke="url(#paint61_linear)"/>
<path d="M63.3072 102.647C84.4289 88.5205 99.1506 70.6002 99.1506 70.6002C99.1506 70.6002 68.7261 59.5153 55.6277 81.6973C42.5294 103.879 19.7693 101.287 19.7693 101.287C19.7693 101.287 42.1854 116.774 63.3072 102.647Z" stroke="url(#paint62_linear)"/>
<path d="M47.6402 107.837C70.8941 97.5929 88.5039 82.5013 88.5039 82.5013C88.5039 82.5013 60.4665 66.3016 43.7153 85.8721C26.9641 105.443 5 98.9373 5 98.9373C5 98.9373 24.3863 118.081 47.6402 107.837Z" stroke="url(#paint63_linear)"/>
</g>
<path d="M136.973 29.7672L147.141 39.9077C148.168 40.9323 148.168 42.5934 147.141 43.618C146.113 44.6426 144.448 44.6426 143.421 43.618L133.253 33.4777C132.228 32.4529 132.228 30.7919 133.253 29.7672C133.766 29.2549 134.439 28.9999 135.113 28.9999C135.787 28.9999 136.459 29.2549 136.973 29.7672Z" fill="white"/>
<path d="M168.189 64.6103C167.676 65.1226 167.001 65.3774 166.329 65.3774C165.657 65.3774 164.985 65.1226 164.472 64.6103L154.303 54.4685C153.276 53.4447 153.276 51.7846 154.303 50.7607C155.329 49.7367 156.994 49.7367 158.021 50.7607L168.189 60.9022C169.217 61.9244 169.217 63.5854 168.189 64.6103Z" fill="white"/>
<path d="M136.972 64.6103L168.189 33.4768C169.216 32.4527 169.216 30.7923 168.189 29.768C167.163 28.7439 165.498 28.7439 164.471 29.768L133.254 60.9014C132.227 61.9256 132.227 63.5861 133.254 64.6103C134.281 65.6344 135.946 65.6344 136.972 64.6103Z" fill="white"/>
<path d="M121.12 29.0067H97.6296C96.1773 29.0067 95 30.1807 95 31.6292C95 33.0776 96.1773 34.2518 97.6296 34.2518H121.12V37.3113C121.12 38.7598 122.298 39.9338 123.75 39.9338C125.202 39.9338 126.379 38.7598 126.379 37.3113V34.2518V31.4985C126.379 30.1223 125.261 29.0067 123.881 29.0067H121.12Z" fill="white"/>
<path d="M121.12 65.3722H97.6296C96.1773 65.3722 95 64.1982 95 62.7497C95 61.3013 96.1773 60.1273 97.6296 60.1273H121.12V57.0676C121.12 55.6193 122.298 54.4451 123.75 54.4451C125.202 54.4451 126.379 55.6193 126.379 57.0676V60.1273V62.8806C126.379 64.2567 125.261 65.3722 123.881 65.3722H121.12Z" fill="white"/>
<path d="M123.75 49.8118H105.693C104.241 49.8118 103.064 48.6376 103.064 47.1892C103.064 45.7409 104.241 44.5667 105.693 44.5667H123.75C125.202 44.5667 126.379 45.7409 126.379 47.1892C126.379 48.6376 125.202 49.8118 123.75 49.8118Z" fill="white"/>
<path d="M174.777 47.4803C174.756 48.391 174.822 49.2829 174.965 50.1497C175.138 51.1903 174.678 52.2332 173.788 52.8033C172.182 53.8325 170.052 52.8771 169.744 50.9982C169.55 49.8169 169.462 48.6009 169.49 47.36C169.687 38.775 175.387 31.6053 183.152 29.13C184.894 28.5745 186.67 29.8726 186.629 31.6959V31.6966C186.603 32.8297 185.85 33.8085 184.768 34.1547C179.095 35.9688 174.92 41.2153 174.777 47.4803Z" fill="white"/>
<path d="M202.122 47.4803C202.143 48.391 202.078 49.2829 201.934 50.1497C201.762 51.1903 202.222 52.2332 203.111 52.8033C204.718 53.8325 206.847 52.8771 207.156 50.9982C207.35 49.8169 207.438 48.6009 207.409 47.36C207.213 38.775 201.512 31.6053 193.747 29.13C192.005 28.5745 190.229 29.8726 190.271 31.6959V31.6966C190.297 32.8297 191.049 33.8085 192.132 34.1547C197.804 35.9688 201.979 41.2153 202.122 47.4803Z" fill="white"/>
<path d="M180.921 58.0364C180.137 57.5679 179.416 57.0368 178.757 56.4529C177.967 55.7522 176.837 55.5839 175.879 56.03C174.149 56.8354 173.823 59.1415 175.252 60.4044C176.15 61.1986 177.134 61.9217 178.202 62.5599C185.586 66.9751 194.708 65.9927 200.951 60.7641C202.351 59.5911 202.198 57.4004 200.63 56.4626L200.629 56.4623C199.655 55.8794 198.423 55.992 197.552 56.7203C192.986 60.5367 186.31 61.2583 180.921 58.0364Z" fill="white"/>
<path d="M221 46.6899C221 49.0314 219.097 50.9297 216.749 50.9297C214.401 50.9297 212.498 49.0314 212.498 46.6899C212.498 44.3484 214.401 42.4501 216.749 42.4501C219.097 42.4501 221 44.3484 221 46.6899Z" fill="white"/>
<path d="M181.103 75.3193C181.103 76.2365 180.358 76.98 179.438 76.98H178.953V87.5128C178.953 88.3341 178.286 89 177.462 89H175.136C174.216 89 173.47 88.2563 173.47 87.339C173.47 86.4216 174.216 85.6781 175.136 85.6781H175.623V75.1455C175.623 74.3243 176.29 73.6583 177.114 73.6583H179.438C180.358 73.6583 181.103 74.4019 181.103 75.3193Z" fill="white"/>
<path d="M151.146 78.3169C151.146 79.0551 151.746 79.6537 152.486 79.6537H162.566C165.154 79.6537 167.252 81.7459 167.252 84.3268C167.252 86.9078 165.154 89 162.566 89H149.495C148.567 89 147.815 88.2499 147.815 87.3244C147.815 86.3991 148.567 85.649 149.495 85.649H162.581C163.321 85.649 163.921 85.0505 163.921 84.3123C163.921 83.5739 163.321 82.9754 162.581 82.9754H152.486C149.906 82.9754 147.815 80.8897 147.815 78.3169C147.815 75.744 149.906 73.6583 152.486 73.6583H165.586C166.506 73.6583 167.252 74.4019 167.252 75.3193C167.252 76.2365 166.506 76.98 165.586 76.98H152.486C151.746 76.98 151.146 77.5785 151.146 78.3169Z" fill="white"/>
<path d="M117.176 79.2967V87.339C117.176 88.2563 116.43 89 115.51 89C114.591 89 113.845 88.2563 113.845 87.339V79.7993C113.845 78.2423 112.579 76.98 111.018 76.98C109.457 76.98 108.191 78.2423 108.191 79.7993V87.339C108.191 88.2563 107.446 89 106.526 89C105.606 89 104.861 88.2563 104.861 87.339V79.7993C104.861 78.2423 103.595 76.98 102.034 76.98C100.472 76.98 99.2069 78.2423 99.2069 79.7993V87.339C99.2069 88.2563 98.4613 89 97.5415 89C96.6217 89 95.8761 88.2563 95.8761 87.339V79.2967C95.8761 76.1825 98.4073 73.6583 101.53 73.6583H102.202C103.964 73.6583 105.6 74.5678 106.526 76.0623C107.423 74.5708 109.039 73.6583 110.783 73.6583H111.522C114.644 73.6583 117.176 76.1825 117.176 79.2967Z" fill="white"/>
<path d="M141.086 75.3193V83.9151C141.086 86.7234 138.803 89 135.987 89H129.004C126.188 89 123.906 86.7234 123.906 83.9151V75.3193C123.906 74.4019 124.652 73.6583 125.571 73.6583C126.491 73.6583 127.237 74.4019 127.237 75.3193V83.988C127.237 84.9055 127.982 85.649 128.902 85.649H136.089C137.009 85.649 137.755 84.9055 137.755 83.988V75.3193C137.755 74.4019 138.5 73.6583 139.42 73.6583C140.34 73.6583 141.086 74.4019 141.086 75.3193Z" fill="white"/>
<path d="M191.408 78.783V83.846C191.408 84.8417 192.217 85.649 193.216 85.649H205.848C206.768 85.649 207.514 86.3926 207.514 87.31V87.339C207.514 88.2563 206.768 89 205.848 89H192.748C190.168 89 188.077 86.9143 188.077 84.3413V78.3169C188.077 75.744 190.168 73.6583 192.748 73.6583H205.848C206.768 73.6583 207.514 74.4019 207.514 75.3193C207.514 76.2365 206.768 76.98 205.848 76.98H193.216C192.217 76.98 191.408 77.7873 191.408 78.783Z" fill="white"/>
<defs>
<filter id="filter0_f" x="0.648682" y="0.499878" width="300.397" height="114.853" filterUnits="userSpaceOnUse" color-interpolation-filters="sRGB">
<feFlood flood-opacity="0" result="BackgroundImageFix"/>
<feBlend mode="normal" in="SourceGraphic" in2="BackgroundImageFix" result="shape"/>
<feGaussianBlur stdDeviation="2" result="effect1_foregroundBlur"/>
</filter>
<filter id="filter1_d" x="0.648682" y="4.49988" width="300.397" height="114.853" filterUnits="userSpaceOnUse" color-interpolation-filters="sRGB">
<feFlood flood-opacity="0" result="BackgroundImageFix"/>
<feColorMatrix in="SourceAlpha" type="matrix" values="0 0 0 0 0 0 0 0 0 0 0 0 0 0 0 0 0 0 127 0" result="hardAlpha"/>
<feOffset dy="4"/>
<feGaussianBlur stdDeviation="2"/>
<feColorMatrix type="matrix" values="0 0 0 0 0 0 0 0 0 0 0 0 0 0 0 0 0 0 0.25 0"/>
<feBlend mode="normal" in2="BackgroundImageFix" result="effect1_dropShadow"/>
<feBlend mode="normal" in="SourceGraphic" in2="effect1_dropShadow" result="shape"/>
</filter>
<linearGradient id="paint0_linear" x1="296.878" y1="58.1715" x2="5" y2="58.1715" gradientUnits="userSpaceOnUse">
<stop stop-color="#58BA2A"/>
<stop offset="0.21875" stop-color="#38ABA4" stop-opacity="0.793684"/>
<stop offset="0.421875" stop-color="#5033A0" stop-opacity="0.44"/>
<stop offset="0.677083" stop-color="#60307E" stop-opacity="0.81"/>
<stop offset="1" stop-color="#887513"/>
</linearGradient>
<linearGradient id="paint1_linear" x1="296.878" y1="58.1715" x2="5" y2="58.1715" gradientUnits="userSpaceOnUse">
<stop stop-color="#58BA2A"/>
<stop offset="0.21875" stop-color="#38ABA4" stop-opacity="0.793684"/>
<stop offset="0.421875" stop-color="#5033A0" stop-opacity="0.44"/>
<stop offset="0.677083" stop-color="#60307E" stop-opacity="0.81"/>
<stop offset="1" stop-color="#887513"/>
</linearGradient>
<linearGradient id="paint2_linear" x1="296.878" y1="58.1715" x2="5" y2="58.1715" gradientUnits="userSpaceOnUse">
<stop stop-color="#58BA2A"/>
<stop offset="0.21875" stop-color="#38ABA4" stop-opacity="0.793684"/>
<stop offset="0.421875" stop-color="#5033A0" stop-opacity="0.44"/>
<stop offset="0.677083" stop-color="#60307E" stop-opacity="0.81"/>
<stop offset="1" stop-color="#887513"/>
</linearGradient>
<linearGradient id="paint3_linear" x1="296.878" y1="58.1715" x2="5" y2="58.1715" gradientUnits="userSpaceOnUse">
<stop stop-color="#58BA2A"/>
<stop offset="0.21875" stop-color="#38ABA4" stop-opacity="0.793684"/>
<stop offset="0.421875" stop-color="#5033A0" stop-opacity="0.44"/>
<stop offset="0.677083" stop-color="#60307E" stop-opacity="0.81"/>
<stop offset="1" stop-color="#887513"/>
</linearGradient>
<linearGradient id="paint4_linear" x1="296.878" y1="58.1715" x2="5" y2="58.1715" gradientUnits="userSpaceOnUse">
<stop stop-color="#58BA2A"/>
<stop offset="0.21875" stop-color="#38ABA4" stop-opacity="0.793684"/>
<stop offset="0.421875" stop-color="#5033A0" stop-opacity="0.44"/>
<stop offset="0.677083" stop-color="#60307E" stop-opacity="0.81"/>
<stop offset="1" stop-color="#887513"/>
</linearGradient>
<linearGradient id="paint5_linear" x1="296.878" y1="58.1715" x2="5" y2="58.1715" gradientUnits="userSpaceOnUse">
<stop stop-color="#58BA2A"/>
<stop offset="0.21875" stop-color="#38ABA4" stop-opacity="0.793684"/>
<stop offset="0.421875" stop-color="#5033A0" stop-opacity="0.44"/>
<stop offset="0.677083" stop-color="#60307E" stop-opacity="0.81"/>
<stop offset="1" stop-color="#887513"/>
</linearGradient>
<linearGradient id="paint6_linear" x1="296.878" y1="58.1715" x2="5" y2="58.1715" gradientUnits="userSpaceOnUse">
<stop stop-color="#58BA2A"/>
<stop offset="0.21875" stop-color="#38ABA4" stop-opacity="0.793684"/>
<stop offset="0.421875" stop-color="#5033A0" stop-opacity="0.44"/>
<stop offset="0.677083" stop-color="#60307E" stop-opacity="0.81"/>
<stop offset="1" stop-color="#887513"/>
</linearGradient>
<linearGradient id="paint7_linear" x1="296.878" y1="58.1715" x2="5" y2="58.1715" gradientUnits="userSpaceOnUse">
<stop stop-color="#58BA2A"/>
<stop offset="0.21875" stop-color="#38ABA4" stop-opacity="0.793684"/>
<stop offset="0.421875" stop-color="#5033A0" stop-opacity="0.44"/>
<stop offset="0.677083" stop-color="#60307E" stop-opacity="0.81"/>
<stop offset="1" stop-color="#887513"/>
</linearGradient>
<linearGradient id="paint8_linear" x1="296.878" y1="58.1715" x2="5" y2="58.1715" gradientUnits="userSpaceOnUse">
<stop stop-color="#58BA2A"/>
<stop offset="0.21875" stop-color="#38ABA4" stop-opacity="0.793684"/>
<stop offset="0.421875" stop-color="#5033A0" stop-opacity="0.44"/>
<stop offset="0.677083" stop-color="#60307E" stop-opacity="0.81"/>
<stop offset="1" stop-color="#887513"/>
</linearGradient>
<linearGradient id="paint9_linear" x1="296.878" y1="58.1715" x2="5" y2="58.1715" gradientUnits="userSpaceOnUse">
<stop stop-color="#58BA2A"/>
<stop offset="0.21875" stop-color="#38ABA4" stop-opacity="0.793684"/>
<stop offset="0.421875" stop-color="#5033A0" stop-opacity="0.44"/>
<stop offset="0.677083" stop-color="#60307E" stop-opacity="0.81"/>
<stop offset="1" stop-color="#887513"/>
</linearGradient>
<linearGradient id="paint10_linear" x1="296.878" y1="58.1715" x2="5" y2="58.1715" gradientUnits="userSpaceOnUse">
<stop stop-color="#58BA2A"/>
<stop offset="0.21875" stop-color="#38ABA4" stop-opacity="0.793684"/>
<stop offset="0.421875" stop-color="#5033A0" stop-opacity="0.44"/>
<stop offset="0.677083" stop-color="#60307E" stop-opacity="0.81"/>
<stop offset="1" stop-color="#887513"/>
</linearGradient>
<linearGradient id="paint11_linear" x1="296.878" y1="58.1715" x2="5" y2="58.1715" gradientUnits="userSpaceOnUse">
<stop stop-color="#58BA2A"/>
<stop offset="0.21875" stop-color="#38ABA4" stop-opacity="0.793684"/>
<stop offset="0.421875" stop-color="#5033A0" stop-opacity="0.44"/>
<stop offset="0.677083" stop-color="#60307E" stop-opacity="0.81"/>
<stop offset="1" stop-color="#887513"/>
</linearGradient>
<linearGradient id="paint12_linear" x1="296.878" y1="58.1715" x2="5" y2="58.1715" gradientUnits="userSpaceOnUse">
<stop stop-color="#58BA2A"/>
<stop offset="0.21875" stop-color="#38ABA4" stop-opacity="0.793684"/>
<stop offset="0.421875" stop-color="#5033A0" stop-opacity="0.44"/>
<stop offset="0.677083" stop-color="#60307E" stop-opacity="0.81"/>
<stop offset="1" stop-color="#887513"/>
</linearGradient>
<linearGradient id="paint13_linear" x1="296.878" y1="58.1715" x2="5" y2="58.1715" gradientUnits="userSpaceOnUse">
<stop stop-color="#58BA2A"/>
<stop offset="0.21875" stop-color="#38ABA4" stop-opacity="0.793684"/>
<stop offset="0.421875" stop-color="#5033A0" stop-opacity="0.44"/>
<stop offset="0.677083" stop-color="#60307E" stop-opacity="0.81"/>
<stop offset="1" stop-color="#887513"/>
</linearGradient>
<linearGradient id="paint14_linear" x1="296.878" y1="58.1715" x2="5" y2="58.1715" gradientUnits="userSpaceOnUse">
<stop stop-color="#58BA2A"/>
<stop offset="0.21875" stop-color="#38ABA4" stop-opacity="0.793684"/>
<stop offset="0.421875" stop-color="#5033A0" stop-opacity="0.44"/>
<stop offset="0.677083" stop-color="#60307E" stop-opacity="0.81"/>
<stop offset="1" stop-color="#887513"/>
</linearGradient>
<linearGradient id="paint15_linear" x1="296.878" y1="58.1715" x2="5" y2="58.1715" gradientUnits="userSpaceOnUse">
<stop stop-color="#58BA2A"/>
<stop offset="0.21875" stop-color="#38ABA4" stop-opacity="0.793684"/>
<stop offset="0.421875" stop-color="#5033A0" stop-opacity="0.44"/>
<stop offset="0.677083" stop-color="#60307E" stop-opacity="0.81"/>
<stop offset="1" stop-color="#887513"/>
</linearGradient>
<linearGradient id="paint16_linear" x1="296.878" y1="58.1715" x2="5" y2="58.1715" gradientUnits="userSpaceOnUse">
<stop stop-color="#58BA2A"/>
<stop offset="0.21875" stop-color="#38ABA4" stop-opacity="0.793684"/>
<stop offset="0.421875" stop-color="#5033A0" stop-opacity="0.44"/>
<stop offset="0.677083" stop-color="#60307E" stop-opacity="0.81"/>
<stop offset="1" stop-color="#887513"/>
</linearGradient>
<linearGradient id="paint17_linear" x1="296.878" y1="58.1715" x2="5" y2="58.1715" gradientUnits="userSpaceOnUse">
<stop stop-color="#58BA2A"/>
<stop offset="0.21875" stop-color="#38ABA4" stop-opacity="0.793684"/>
<stop offset="0.421875" stop-color="#5033A0" stop-opacity="0.44"/>
<stop offset="0.677083" stop-color="#60307E" stop-opacity="0.81"/>
<stop offset="1" stop-color="#887513"/>
</linearGradient>
<linearGradient id="paint18_linear" x1="296.878" y1="58.1715" x2="5" y2="58.1715" gradientUnits="userSpaceOnUse">
<stop stop-color="#58BA2A"/>
<stop offset="0.21875" stop-color="#38ABA4" stop-opacity="0.793684"/>
<stop offset="0.421875" stop-color="#5033A0" stop-opacity="0.44"/>
<stop offset="0.677083" stop-color="#60307E" stop-opacity="0.81"/>
<stop offset="1" stop-color="#887513"/>
</linearGradient>
<linearGradient id="paint19_linear" x1="296.878" y1="58.1715" x2="5" y2="58.1715" gradientUnits="userSpaceOnUse">
<stop stop-color="#58BA2A"/>
<stop offset="0.21875" stop-color="#38ABA4" stop-opacity="0.793684"/>
<stop offset="0.421875" stop-color="#5033A0" stop-opacity="0.44"/>
<stop offset="0.677083" stop-color="#60307E" stop-opacity="0.81"/>
<stop offset="1" stop-color="#887513"/>
</linearGradient>
<linearGradient id="paint20_linear" x1="296.878" y1="58.1715" x2="5" y2="58.1715" gradientUnits="userSpaceOnUse">
<stop stop-color="#58BA2A"/>
<stop offset="0.21875" stop-color="#38ABA4" stop-opacity="0.793684"/>
<stop offset="0.421875" stop-color="#5033A0" stop-opacity="0.44"/>
<stop offset="0.677083" stop-color="#60307E" stop-opacity="0.81"/>
<stop offset="1" stop-color="#887513"/>
</linearGradient>
<linearGradient id="paint21_linear" x1="296.878" y1="58.1715" x2="5" y2="58.1715" gradientUnits="userSpaceOnUse">
<stop stop-color="#58BA2A"/>
<stop offset="0.21875" stop-color="#38ABA4" stop-opacity="0.793684"/>
<stop offset="0.421875" stop-color="#5033A0" stop-opacity="0.44"/>
<stop offset="0.677083" stop-color="#60307E" stop-opacity="0.81"/>
<stop offset="1" stop-color="#887513"/>
</linearGradient>
<linearGradient id="paint22_linear" x1="296.878" y1="58.1715" x2="5" y2="58.1715" gradientUnits="userSpaceOnUse">
<stop stop-color="#58BA2A"/>
<stop offset="0.21875" stop-color="#38ABA4" stop-opacity="0.793684"/>
<stop offset="0.421875" stop-color="#5033A0" stop-opacity="0.44"/>
<stop offset="0.677083" stop-color="#60307E" stop-opacity="0.81"/>
<stop offset="1" stop-color="#887513"/>
</linearGradient>
<linearGradient id="paint23_linear" x1="296.878" y1="58.1715" x2="5" y2="58.1715" gradientUnits="userSpaceOnUse">
<stop stop-color="#58BA2A"/>
<stop offset="0.21875" stop-color="#38ABA4" stop-opacity="0.793684"/>
<stop offset="0.421875" stop-color="#5033A0" stop-opacity="0.44"/>
<stop offset="0.677083" stop-color="#60307E" stop-opacity="0.81"/>
<stop offset="1" stop-color="#887513"/>
</linearGradient>
<linearGradient id="paint24_linear" x1="296.878" y1="58.1715" x2="5" y2="58.1715" gradientUnits="userSpaceOnUse">
<stop stop-color="#58BA2A"/>
<stop offset="0.21875" stop-color="#38ABA4" stop-opacity="0.793684"/>
<stop offset="0.421875" stop-color="#5033A0" stop-opacity="0.44"/>
<stop offset="0.677083" stop-color="#60307E" stop-opacity="0.81"/>
<stop offset="1" stop-color="#887513"/>
</linearGradient>
<linearGradient id="paint25_linear" x1="296.878" y1="58.1715" x2="5" y2="58.1715" gradientUnits="userSpaceOnUse">
<stop stop-color="#58BA2A"/>
<stop offset="0.21875" stop-color="#38ABA4" stop-opacity="0.793684"/>
<stop offset="0.421875" stop-color="#5033A0" stop-opacity="0.44"/>
<stop offset="0.677083" stop-color="#60307E" stop-opacity="0.81"/>
<stop offset="1" stop-color="#887513"/>
</linearGradient>
<linearGradient id="paint26_linear" x1="296.878" y1="58.1715" x2="5" y2="58.1715" gradientUnits="userSpaceOnUse">
<stop stop-color="#58BA2A"/>
<stop offset="0.21875" stop-color="#38ABA4" stop-opacity="0.793684"/>
<stop offset="0.421875" stop-color="#5033A0" stop-opacity="0.44"/>
<stop offset="0.677083" stop-color="#60307E" stop-opacity="0.81"/>
<stop offset="1" stop-color="#887513"/>
</linearGradient>
<linearGradient id="paint27_linear" x1="296.878" y1="58.1715" x2="5" y2="58.1715" gradientUnits="userSpaceOnUse">
<stop stop-color="#58BA2A"/>
<stop offset="0.21875" stop-color="#38ABA4" stop-opacity="0.793684"/>
<stop offset="0.421875" stop-color="#5033A0" stop-opacity="0.44"/>
<stop offset="0.677083" stop-color="#60307E" stop-opacity="0.81"/>
<stop offset="1" stop-color="#887513"/>
</linearGradient>
<linearGradient id="paint28_linear" x1="296.878" y1="58.1715" x2="5" y2="58.1715" gradientUnits="userSpaceOnUse">
<stop stop-color="#58BA2A"/>
<stop offset="0.21875" stop-color="#38ABA4" stop-opacity="0.793684"/>
<stop offset="0.421875" stop-color="#5033A0" stop-opacity="0.44"/>
<stop offset="0.677083" stop-color="#60307E" stop-opacity="0.81"/>
<stop offset="1" stop-color="#887513"/>
</linearGradient>
<linearGradient id="paint29_linear" x1="296.878" y1="58.1715" x2="5" y2="58.1715" gradientUnits="userSpaceOnUse">
<stop stop-color="#58BA2A"/>
<stop offset="0.21875" stop-color="#38ABA4" stop-opacity="0.793684"/>
<stop offset="0.421875" stop-color="#5033A0" stop-opacity="0.44"/>
<stop offset="0.677083" stop-color="#60307E" stop-opacity="0.81"/>
<stop offset="1" stop-color="#887513"/>
</linearGradient>
<linearGradient id="paint30_linear" x1="296.878" y1="58.1715" x2="5" y2="58.1715" gradientUnits="userSpaceOnUse">
<stop stop-color="#58BA2A"/>
<stop offset="0.21875" stop-color="#38ABA4" stop-opacity="0.793684"/>
<stop offset="0.421875" stop-color="#5033A0" stop-opacity="0.44"/>
<stop offset="0.677083" stop-color="#60307E" stop-opacity="0.81"/>
<stop offset="1" stop-color="#887513"/>
</linearGradient>
<linearGradient id="paint31_linear" x1="296.878" y1="58.1715" x2="5" y2="58.1715" gradientUnits="userSpaceOnUse">
<stop stop-color="#58BA2A"/>
<stop offset="0.21875" stop-color="#38ABA4" stop-opacity="0.793684"/>
<stop offset="0.421875" stop-color="#5033A0" stop-opacity="0.44"/>
<stop offset="0.677083" stop-color="#60307E" stop-opacity="0.81"/>
<stop offset="1" stop-color="#887513"/>
</linearGradient>
<linearGradient id="paint32_linear" x1="296.878" y1="58.1715" x2="5" y2="58.1715" gradientUnits="userSpaceOnUse">
<stop stop-color="#50A329"/>
<stop offset="0.21875" stop-color="#338F8A" stop-opacity="0.793684"/>
<stop offset="0.421875" stop-color="#5033A0" stop-opacity="0.44"/>
<stop offset="0.677083" stop-color="#60307E" stop-opacity="0.81"/>
<stop offset="1" stop-color="#887513"/>
</linearGradient>
<linearGradient id="paint33_linear" x1="296.878" y1="58.1715" x2="5" y2="58.1715" gradientUnits="userSpaceOnUse">
<stop stop-color="#50A329"/>
<stop offset="0.21875" stop-color="#338F8A" stop-opacity="0.793684"/>
<stop offset="0.421875" stop-color="#5033A0" stop-opacity="0.44"/>
<stop offset="0.677083" stop-color="#60307E" stop-opacity="0.81"/>
<stop offset="1" stop-color="#887513"/>
</linearGradient>
<linearGradient id="paint34_linear" x1="296.878" y1="58.1715" x2="5" y2="58.1715" gradientUnits="userSpaceOnUse">
<stop stop-color="#50A329"/>
<stop offset="0.21875" stop-color="#338F8A" stop-opacity="0.793684"/>
<stop offset="0.421875" stop-color="#5033A0" stop-opacity="0.44"/>
<stop offset="0.677083" stop-color="#60307E" stop-opacity="0.81"/>
<stop offset="1" stop-color="#887513"/>
</linearGradient>
<linearGradient id="paint35_linear" x1="296.878" y1="58.1715" x2="5" y2="58.1715" gradientUnits="userSpaceOnUse">
<stop stop-color="#50A329"/>
<stop offset="0.21875" stop-color="#338F8A" stop-opacity="0.793684"/>
<stop offset="0.421875" stop-color="#5033A0" stop-opacity="0.44"/>
<stop offset="0.677083" stop-color="#60307E" stop-opacity="0.81"/>
<stop offset="1" stop-color="#887513"/>
</linearGradient>
<linearGradient id="paint36_linear" x1="296.878" y1="58.1715" x2="5" y2="58.1715" gradientUnits="userSpaceOnUse">
<stop stop-color="#50A329"/>
<stop offset="0.21875" stop-color="#338F8A" stop-opacity="0.793684"/>
<stop offset="0.421875" stop-color="#5033A0" stop-opacity="0.44"/>
<stop offset="0.677083" stop-color="#60307E" stop-opacity="0.81"/>
<stop offset="1" stop-color="#887513"/>
</linearGradient>
<linearGradient id="paint37_linear" x1="296.878" y1="58.1715" x2="5" y2="58.1715" gradientUnits="userSpaceOnUse">
<stop stop-color="#50A329"/>
<stop offset="0.21875" stop-color="#338F8A" stop-opacity="0.793684"/>
<stop offset="0.421875" stop-color="#5033A0" stop-opacity="0.44"/>
<stop offset="0.677083" stop-color="#60307E" stop-opacity="0.81"/>
<stop offset="1" stop-color="#887513"/>
</linearGradient>
<linearGradient id="paint38_linear" x1="296.878" y1="58.1715" x2="5" y2="58.1715" gradientUnits="userSpaceOnUse">
<stop stop-color="#50A329"/>
<stop offset="0.21875" stop-color="#338F8A" stop-opacity="0.793684"/>
<stop offset="0.421875" stop-color="#5033A0" stop-opacity="0.44"/>
<stop offset="0.677083" stop-color="#60307E" stop-opacity="0.81"/>
<stop offset="1" stop-color="#887513"/>
</linearGradient>
<linearGradient id="paint39_linear" x1="296.878" y1="58.1715" x2="5" y2="58.1715" gradientUnits="userSpaceOnUse">
<stop stop-color="#50A329"/>
<stop offset="0.21875" stop-color="#338F8A" stop-opacity="0.793684"/>
<stop offset="0.421875" stop-color="#5033A0" stop-opacity="0.44"/>
<stop offset="0.677083" stop-color="#60307E" stop-opacity="0.81"/>
<stop offset="1" stop-color="#887513"/>
</linearGradient>
<linearGradient id="paint40_linear" x1="296.878" y1="58.1715" x2="5" y2="58.1715" gradientUnits="userSpaceOnUse">
<stop stop-color="#50A329"/>
<stop offset="0.21875" stop-color="#338F8A" stop-opacity="0.793684"/>
<stop offset="0.421875" stop-color="#5033A0" stop-opacity="0.44"/>
<stop offset="0.677083" stop-color="#60307E" stop-opacity="0.81"/>
<stop offset="1" stop-color="#887513"/>
</linearGradient>
<linearGradient id="paint41_linear" x1="296.878" y1="58.1715" x2="5" y2="58.1715" gradientUnits="userSpaceOnUse">
<stop stop-color="#50A329"/>
<stop offset="0.21875" stop-color="#338F8A" stop-opacity="0.793684"/>
<stop offset="0.421875" stop-color="#5033A0" stop-opacity="0.44"/>
<stop offset="0.677083" stop-color="#60307E" stop-opacity="0.81"/>
<stop offset="1" stop-color="#887513"/>
</linearGradient>
<linearGradient id="paint42_linear" x1="296.878" y1="58.1715" x2="5" y2="58.1715" gradientUnits="userSpaceOnUse">
<stop stop-color="#50A329"/>
<stop offset="0.21875" stop-color="#338F8A" stop-opacity="0.793684"/>
<stop offset="0.421875" stop-color="#5033A0" stop-opacity="0.44"/>
<stop offset="0.677083" stop-color="#60307E" stop-opacity="0.81"/>
<stop offset="1" stop-color="#887513"/>
</linearGradient>
<linearGradient id="paint43_linear" x1="296.878" y1="58.1715" x2="5" y2="58.1715" gradientUnits="userSpaceOnUse">
<stop stop-color="#50A329"/>
<stop offset="0.21875" stop-color="#338F8A" stop-opacity="0.793684"/>
<stop offset="0.421875" stop-color="#5033A0" stop-opacity="0.44"/>
<stop offset="0.677083" stop-color="#60307E" stop-opacity="0.81"/>
<stop offset="1" stop-color="#887513"/>
</linearGradient>
<linearGradient id="paint44_linear" x1="296.878" y1="58.1715" x2="5" y2="58.1715" gradientUnits="userSpaceOnUse">
<stop stop-color="#50A329"/>
<stop offset="0.21875" stop-color="#338F8A" stop-opacity="0.793684"/>
<stop offset="0.421875" stop-color="#5033A0" stop-opacity="0.44"/>
<stop offset="0.677083" stop-color="#60307E" stop-opacity="0.81"/>
<stop offset="1" stop-color="#887513"/>
</linearGradient>
<linearGradient id="paint45_linear" x1="296.878" y1="58.1715" x2="5" y2="58.1715" gradientUnits="userSpaceOnUse">
<stop stop-color="#50A329"/>
<stop offset="0.21875" stop-color="#338F8A" stop-opacity="0.793684"/>
<stop offset="0.421875" stop-color="#5033A0" stop-opacity="0.44"/>
<stop offset="0.677083" stop-color="#60307E" stop-opacity="0.81"/>
<stop offset="1" stop-color="#887513"/>
</linearGradient>
<linearGradient id="paint46_linear" x1="296.878" y1="58.1715" x2="5" y2="58.1715" gradientUnits="userSpaceOnUse">
<stop stop-color="#50A329"/>
<stop offset="0.21875" stop-color="#338F8A" stop-opacity="0.793684"/>
<stop offset="0.421875" stop-color="#5033A0" stop-opacity="0.44"/>
<stop offset="0.677083" stop-color="#60307E" stop-opacity="0.81"/>
<stop offset="1" stop-color="#887513"/>
</linearGradient>
<linearGradient id="paint47_linear" x1="296.878" y1="58.1715" x2="5" y2="58.1715" gradientUnits="userSpaceOnUse">
<stop stop-color="#50A329"/>
<stop offset="0.21875" stop-color="#338F8A" stop-opacity="0.793684"/>
<stop offset="0.421875" stop-color="#5033A0" stop-opacity="0.44"/>
<stop offset="0.677083" stop-color="#60307E" stop-opacity="0.81"/>
<stop offset="1" stop-color="#887513"/>
</linearGradient>
<linearGradient id="paint48_linear" x1="296.878" y1="58.1715" x2="5" y2="58.1715" gradientUnits="userSpaceOnUse">
<stop stop-color="#50A329"/>
<stop offset="0.21875" stop-color="#338F8A" stop-opacity="0.793684"/>
<stop offset="0.421875" stop-color="#5033A0" stop-opacity="0.44"/>
<stop offset="0.677083" stop-color="#60307E" stop-opacity="0.81"/>
<stop offset="1" stop-color="#887513"/>
</linearGradient>
<linearGradient id="paint49_linear" x1="296.878" y1="58.1715" x2="5" y2="58.1715" gradientUnits="userSpaceOnUse">
<stop stop-color="#50A329"/>
<stop offset="0.21875" stop-color="#338F8A" stop-opacity="0.793684"/>
<stop offset="0.421875" stop-color="#5033A0" stop-opacity="0.44"/>
<stop offset="0.677083" stop-color="#60307E" stop-opacity="0.81"/>
<stop offset="1" stop-color="#887513"/>
</linearGradient>
<linearGradient id="paint50_linear" x1="296.878" y1="58.1715" x2="5" y2="58.1715" gradientUnits="userSpaceOnUse">
<stop stop-color="#50A329"/>
<stop offset="0.21875" stop-color="#338F8A" stop-opacity="0.793684"/>
<stop offset="0.421875" stop-color="#5033A0" stop-opacity="0.44"/>
<stop offset="0.677083" stop-color="#60307E" stop-opacity="0.81"/>
<stop offset="1" stop-color="#887513"/>
</linearGradient>
<linearGradient id="paint51_linear" x1="296.878" y1="58.1715" x2="5" y2="58.1715" gradientUnits="userSpaceOnUse">
<stop stop-color="#50A329"/>
<stop offset="0.21875" stop-color="#338F8A" stop-opacity="0.793684"/>
<stop offset="0.421875" stop-color="#5033A0" stop-opacity="0.44"/>
<stop offset="0.677083" stop-color="#60307E" stop-opacity="0.81"/>
<stop offset="1" stop-color="#887513"/>
</linearGradient>
<linearGradient id="paint52_linear" x1="296.878" y1="58.1715" x2="5" y2="58.1715" gradientUnits="userSpaceOnUse">
<stop stop-color="#50A329"/>
<stop offset="0.21875" stop-color="#338F8A" stop-opacity="0.793684"/>
<stop offset="0.421875" stop-color="#5033A0" stop-opacity="0.44"/>
<stop offset="0.677083" stop-color="#60307E" stop-opacity="0.81"/>
<stop offset="1" stop-color="#887513"/>
</linearGradient>
<linearGradient id="paint53_linear" x1="296.878" y1="58.1715" x2="5" y2="58.1715" gradientUnits="userSpaceOnUse">
<stop stop-color="#50A329"/>
<stop offset="0.21875" stop-color="#338F8A" stop-opacity="0.793684"/>
<stop offset="0.421875" stop-color="#5033A0" stop-opacity="0.44"/>
<stop offset="0.677083" stop-color="#60307E" stop-opacity="0.81"/>
<stop offset="1" stop-color="#887513"/>
</linearGradient>
<linearGradient id="paint54_linear" x1="296.878" y1="58.1715" x2="5" y2="58.1715" gradientUnits="userSpaceOnUse">
<stop stop-color="#50A329"/>
<stop offset="0.21875" stop-color="#338F8A" stop-opacity="0.793684"/>
<stop offset="0.421875" stop-color="#5033A0" stop-opacity="0.44"/>
<stop offset="0.677083" stop-color="#60307E" stop-opacity="0.81"/>
<stop offset="1" stop-color="#887513"/>
</linearGradient>
<linearGradient id="paint55_linear" x1="296.878" y1="58.1715" x2="5" y2="58.1715" gradientUnits="userSpaceOnUse">
<stop stop-color="#50A329"/>
<stop offset="0.21875" stop-color="#338F8A" stop-opacity="0.793684"/>
<stop offset="0.421875" stop-color="#5033A0" stop-opacity="0.44"/>
<stop offset="0.677083" stop-color="#60307E" stop-opacity="0.81"/>
<stop offset="1" stop-color="#887513"/>
</linearGradient>
<linearGradient id="paint56_linear" x1="296.878" y1="58.1715" x2="5" y2="58.1715" gradientUnits="userSpaceOnUse">
<stop stop-color="#50A329"/>
<stop offset="0.21875" stop-color="#338F8A" stop-opacity="0.793684"/>
<stop offset="0.421875" stop-color="#5033A0" stop-opacity="0.44"/>
<stop offset="0.677083" stop-color="#60307E" stop-opacity="0.81"/>
<stop offset="1" stop-color="#887513"/>
</linearGradient>
<linearGradient id="paint57_linear" x1="296.878" y1="58.1715" x2="5" y2="58.1715" gradientUnits="userSpaceOnUse">
<stop stop-color="#50A329"/>
<stop offset="0.21875" stop-color="#338F8A" stop-opacity="0.793684"/>
<stop offset="0.421875" stop-color="#5033A0" stop-opacity="0.44"/>
<stop offset="0.677083" stop-color="#60307E" stop-opacity="0.81"/>
<stop offset="1" stop-color="#887513"/>
</linearGradient>
<linearGradient id="paint58_linear" x1="296.878" y1="58.1715" x2="5" y2="58.1715" gradientUnits="userSpaceOnUse">
<stop stop-color="#50A329"/>
<stop offset="0.21875" stop-color="#338F8A" stop-opacity="0.793684"/>
<stop offset="0.421875" stop-color="#5033A0" stop-opacity="0.44"/>
<stop offset="0.677083" stop-color="#60307E" stop-opacity="0.81"/>
<stop offset="1" stop-color="#887513"/>
</linearGradient>
<linearGradient id="paint59_linear" x1="296.878" y1="58.1715" x2="5" y2="58.1715" gradientUnits="userSpaceOnUse">
<stop stop-color="#50A329"/>
<stop offset="0.21875" stop-color="#338F8A" stop-opacity="0.793684"/>
<stop offset="0.421875" stop-color="#5033A0" stop-opacity="0.44"/>
<stop offset="0.677083" stop-color="#60307E" stop-opacity="0.81"/>
<stop offset="1" stop-color="#887513"/>
</linearGradient>
<linearGradient id="paint60_linear" x1="296.878" y1="58.1715" x2="5" y2="58.1715" gradientUnits="userSpaceOnUse">
<stop stop-color="#50A329"/>
<stop offset="0.21875" stop-color="#338F8A" stop-opacity="0.793684"/>
<stop offset="0.421875" stop-color="#5033A0" stop-opacity="0.44"/>
<stop offset="0.677083" stop-color="#60307E" stop-opacity="0.81"/>
<stop offset="1" stop-color="#887513"/>
</linearGradient>
<linearGradient id="paint61_linear" x1="296.878" y1="58.1715" x2="5" y2="58.1715" gradientUnits="userSpaceOnUse">
<stop stop-color="#50A329"/>
<stop offset="0.21875" stop-color="#338F8A" stop-opacity="0.793684"/>
<stop offset="0.421875" stop-color="#5033A0" stop-opacity="0.44"/>
<stop offset="0.677083" stop-color="#60307E" stop-opacity="0.81"/>
<stop offset="1" stop-color="#887513"/>
</linearGradient>
<linearGradient id="paint62_linear" x1="296.878" y1="58.1715" x2="5" y2="58.1715" gradientUnits="userSpaceOnUse">
<stop stop-color="#50A329"/>
<stop offset="0.21875" stop-color="#338F8A" stop-opacity="0.793684"/>
<stop offset="0.421875" stop-color="#5033A0" stop-opacity="0.44"/>
<stop offset="0.677083" stop-color="#60307E" stop-opacity="0.81"/>
<stop offset="1" stop-color="#887513"/>
</linearGradient>
<linearGradient id="paint63_linear" x1="296.878" y1="58.1715" x2="5" y2="58.1715" gradientUnits="userSpaceOnUse">
<stop stop-color="#50A329"/>
<stop offset="0.21875" stop-color="#338F8A" stop-opacity="0.793684"/>
<stop offset="0.421875" stop-color="#5033A0" stop-opacity="0.44"/>
<stop offset="0.677083" stop-color="#60307E" stop-opacity="0.81"/>
<stop offset="1" stop-color="#887513"/>
</linearGradient>
</defs>
</svg>
